
<svg
        xmlns:dc="http://purl.org/dc/elements/1.1/"
        xmlns:cc="http://creativecommons.org/ns#"
        xmlns:rdf="http://www.w3.org/1999/02/22-rdf-syntax-ns#"
        xmlns:svg="http://www.w3.org/2000/svg"
        xmlns="http://www.w3.org/2000/svg"
        viewBox="0 0 1440 1440"
        height="100"
        width="100"
        xml:space="preserve"
        id="svg2"
        version="1.1"><metadata
     id="metadata8"><rdf:RDF><cc:Work
         rdf:about=""><dc:format>image/svg+xml</dc:format><dc:type
        rdf:resource="http://purl.org/dc/dcmitype/StillImage" /></cc:Work></rdf:RDF></metadata><defs
        id="defs6"><clipPath
       id="clipPath18"
       clipPathUnits="userSpaceOnUse"><path
         id="path16"
         d="M 0,1080 H 1080 V 0 H 0 Z" /></clipPath></defs><g
        transform="matrix(1.3333333,0,0,-1.3333333,0,1440)"
        id="g10"><g
       id="g12"><g
         clip-path="url(#clipPath18)"
         id="g14"><g
           transform="translate(643.9886,646.3539)"
           id="g20"><path
             id="path22"
             style="fill:#727272;fill-opacity:1;fill-rule:nonzero;stroke:none"
             d="m 0,0 h -113.367 -2.56 -18.27 l 43.335,-95.997 h 20.945 l -34.748,76.772 H 0 c 18.806,0 36.139,-10.991 44.16,-28.001 7.172,-15.208 6.079,-32.767 -2.926,-46.967 -9.004,-14.201 -24.418,-22.679 -41.233,-22.679 h -162.078 l 9.982,-19.225 H 0.001 c 23.436,0 44.92,11.816 57.469,31.609 12.551,19.793 14.074,44.265 4.08,65.461 C 50.37,-15.319 26.211,0 0,0" /></g><g
        transform="translate(674.9535,335.42)"
        id="g24"><path
             id="path26"
             style="fill:#727272;fill-opacity:1;fill-rule:nonzero;stroke:none"
             d="M 0,0 -73.461,154.353 H -94.478 L -17.033,-8.683 h 2.623 c -34.997,-19.484 -75.26,-30.606 -118.078,-30.606 -134.286,0 -243.537,109.25 -243.537,243.537 0,131.311 104.468,238.664 234.654,243.357 l -160.734,-343.337 1.912,-0.884 h 18.862 l 163.805,343.927 C 9.818,439.553 111.05,333.509 111.05,204.248 111.05,118.785 66.792,43.474 0,0 m -132.488,466.58 c -144.65,0 -262.332,-117.682 -262.332,-262.332 0,-144.651 117.682,-262.333 262.332,-262.333 144.65,0 262.334,117.682 262.334,262.333 0,144.65 -117.684,262.332 -262.334,262.332" /></g></g></g></g></svg>
